{"title":"Child.44.HDRip.MIC-AUDIO.XVID.AC3.Hive-CM8","uid":12175493,"size":1750110772,"categoryP":"video","categoryS":"movies","magnet":"?xt=urn:btih:daa5c3b5f4eae025c770e39426a9b9fd4e75d647&amp;dn=Child.44.HDRip.MIC-AUDIO.XVID.AC3.Hive-CM8&amp;tr=udp%3A%2F%2Ftracker.openbittorrent.com%3A80&amp;tr=udp%3A%2F%2Fopen.demonii.com%3A1337&amp;tr=udp%3A%2F%2Ftracker.coppersurfer.tk%3A6969&amp;tr=udp%3A%2F%2Fexodus.desync.com%3A6969","seeders":0,"leechers":0,"uploader":"TvTeam","files":4,"time":1438302453,"description":"------------------------------------------------------------------------\n\n &lt;a href=&quot; https://www.torrenting.com&quot; rel=&quot;nofollow&quot; target=&quot;_NEW&quot;&gt; https://www.torrenting.com&lt;/a&gt;\n\nSign up is OPEN - for time being. Come and have fun\n\n.......................................................................................................................[center][img]http://img913.imageshack.us/img913/7691/kjMMWA.jpg[/img]\n\n\n[color=blue][size=4][b]Child.44.HDRip.MIC-AUDIO.XVID.AC3.Hive-CM8[/b][/size][/color]\n\nThx Hive\n\nCM8 Doing It Right The First Time\n\nSources\nVideo: Russian 1080p Web-DL \nAudio: English Cam Audio\nthx m8\n\nNotes:\nhad the cam audio since a month ago, for a cam audio its good,\nthere was an italian cam out a month ago, invested hours on it, but it was too dark to use, so i waited\ndoing a release now with the web-dl looks a lot better\nretail is in 3 weeks, so if you wanna watch it earlier here is your chance\n\nEncode:\neven the web-dl is quite dark, brightened it up without going over,and added sharpness\nfor the audio is was quite nice, cleaned as needed and lipsynced to my video\ntried entering it into a the russian 5.1 track but music would have been louder as the voices, so i left it stereo\n\nits an ok-watch\nenjoy\n\nVideo: 720x400 @bitrate 1500 2pass\nAudio: English Cam Stereo 2.0\nSample: yes included\n\nPS:\nstill need HDCams, can you get some (magic mike-antman-pixels....)? msg me\n &lt;a href=&quot;\nhttp://www.imdb.com/title/tt1014763/&quot; rel=&quot;nofollow&quot; target=&quot;_NEW&quot;&gt;\nhttp://www.imdb.com/title/tt1014763/&lt;/a&gt;\n\n\nGeneral\nComplete name                  : Child.44.HDRip.MIC-AUDIO.XVID.AC3.Hive-CM8.avi\nFormat                         : AVI\nFormat/Info                    : Audio Video Interleave\nFile size                      : 1.62 GiB\nDuration                       : 2h 11mn\nOverall bit rate               : 1 765 Kbps\nWriting application            : Nandub v1.0rc2\nWriting library                : Nandub build 1853/release\n\nVideo\nID                             : 0\nFormat                         : MPEG-4 Visual\nFormat profile                 : Advanced Simple@L5\nFormat settings, BVOP          : 2\nFormat settings, QPel          : Yes\nFormat settings, GMC           : No warppoints\nFormat settings, Matrix        : Default (H.263)\nMuxing mode                    : Packed bitstream\nCodec ID                       : XVID\nCodec ID/Hint                  : XviD\nDuration                       : 2h 11mn\nBit rate                       : 1 499 Kbps\nWidth                          : 720 pixels\nHeight                         : 400 pixels\nDisplay aspect ratio           : 16:9\nFrame rate                     : 25.000 fps\nColor space                    : YUV\nChroma subsampling             : 4:2:0\nBit depth                      : 8 bits\nScan type                      : Progressive\nCompression mode               : Lossy\nBits/(Pixel*Frame)             : 0.208\nStream size                    : 1.38 GiB (85%)\nWriting library                : XviD 1.2.1 (UTC 2008-12-04)\n\nAudio\nID                             : 1\nFormat                         : AC-3\nFormat/Info                    : Audio Coding 3\nMode extension                 : CM (complete main)\nFormat settings, Endianness    : Big\nCodec ID                       : 2000\nDuration                       : 2h 11mn\nBit rate mode                  : Constant\nBit rate                       : 256 Kbps\nChannel(s)                     : 2 channels\nChannel positions              : Front: L R\nSampling rate                  : 48.0 KHz\nBit depth                      : 16 bits\nCompression mode               : Lossy\nStream size                    : 241 MiB (15%)\nAlignment                      : Split accross interleaves\nInterleave, duration           : 40 ms (1.00 video frame)\nInterleave, preload duration   : 500 ms\n\n\n\n\nScreens \n\n[img]http://img540.imageshack.us/img540/2613/cdKDVA.png[/img]\n[img]http://img907.imageshack.us/img907/9420/7ogk8t.png[/img]\n[img]http://img673.imageshack.us/img673/8304/h8oFJn.png[/img]\n[img]http://img909.imageshack.us/img909/9122/jjI1VQ.png[/img]\n[img]http://img911.imageshack.us/img911/3892/Sgi2fw.png[/img]\n\n\n\nPlot\n\nA disgraced member of the military police investigates a series of nasty child murders during the Stalin-era Soviet Union.\n\nCast\n\n Xavier Atkins \t... Young Leo Demidov\nMark Lewis Jones \t... \tTortoise\nTom Hardy \t... \tLeo Demidov\nJoel Kinnaman \t... \tVasili\nFares Fares \t... \tAlexei Andreyev \n\n\n\n\nGreetz\n\nSugarB,iNCOMiNG,jiinx,SiMPLE,CherryBomb\nViSiON,YanKeeS,COPYxRIGHT,THC,\nLKRG,Kingstoner,ACAB,SiMPLE,TiTAN\nUnevano,BigVik,Rapeseed,SAFC,goldadvance,KaN1vE,Pinnz,Wayne,HiGH\nSeeN,jtr,Limey,ICONiK,TED,rkofan\nMr Hive\n\nLOOKING FOR ANYTHING YOU WANT TO LOOK AND SOUND BETTER\n\n\nCOME FIND US WE DONT BITE \n&lt;a class=&quot;__cf_email__&quot; href=&quot;/cdn-cgi/l/email-protection&quot; data-cfemail=&quot;4d0e00750d25383e25202c2421632028&quot;&gt;[email&amp;#160;protected]&lt;/a&gt;&lt;script data-cfhash='f9e31' type=&quot;text/javascript&quot;&gt;\n/* &lt;![CDATA[ */!function(){try{var t=&quot;currentScript&quot;in document?document.currentScript:function(){for(var t=document.getElementsByTagName(&quot;script&quot;),e=t.length;e--;)if(t[e].getAttribute(&quot;data-cfhash&quot;))return t[e]}();if(t&amp;&amp;t.previousSibling){var e,r,n,i,c=t.previousSibling,a=c.getAttribute(&quot;data-cfemail&quot;);if(a){for(e=&quot;&quot;,r=parseInt(a.substr(0,2),16),n=2;a.length-n;n+=2)i=parseInt(a.substr(n,2),16)^r,e+=String.fromCharCode(i);e=document.createTextNode(e),c.parentNode.replaceChild(e,c)}t.parentNode.removeChild(t);}}catch(u){}}()/* ]]&gt; */&lt;/script&gt;[/center]","torrent":{"xt":"urn:btih:daa5c3b5f4eae025c770e39426a9b9fd4e75d647","amp;dn":"Child.44.HDRip.MIC-AUDIO.XVID.AC3.Hive-CM8","amp;tr":["udp%3A%2F%2Ftracker.openbittorrent.com%3A80","udp%3A%2F%2Fopen.demonii.com%3A1337","udp%3A%2F%2Ftracker.coppersurfer.tk%3A6969","udp%3A%2F%2Fexodus.desync.com%3A6969"],"infoHash":"daa5c3b5f4eae025c770e39426a9b9fd4e75d647","infoHashBuffer":{"type":"Buffer","data":[218,165,195,181,244,234,224,37,199,112,227,148,38,169,185,253,78,117,214,71]},"announce":[],"urlList":[]}}